# xmcd CD database file
#
# Track frame offsets:
#	150
#	17315
#	40772
#	58904
#	74515
#	94707
#	107748
#	126453
#	143269
#	159541
#	172755
#	185329
#	205756
#	218038
#	237457
#	252926
#
# Disc length: 3583 seconds
#
# Revision: 0
# Processed by: cddbd v1.5.2PL0 Copyright (c) Steve Scherf et al.
# Submitted via: CDex 1.77
#
DISCID=d80dfd10
DTITLE=Swing Up Orchestra - Hop Skip And Jump
DYEAR=2019
DGENRE=Jazz
TTITLE0=Yacht club swing
TTITLE1=Love you madly 
TTITLE2=You blew out the flame in my heart
TTITLE3=Undecided
TTITLE4=Bunny
TTITLE5=Hop skip and jump
TTITLE6=Comes Love
TTITLE7=Jammin' the blues
TTITLE8=Swingin' on nothing
TTITLE9=Savoy blip
TTITLE10=Swing brother swing
TTITLE11=Egyptian fantasy
TTITLE12=Just a little bit south in North Carolina
TTITLE13=Jones
TTITLE14=You've got me voodoo
TTITLE15=Diga diga doo
EXTD=YEAR: 2019
EXTT0=
EXTT1=
EXTT2=
EXTT3=
EXTT4=
EXTT5=
EXTT6=
EXTT7=
EXTT8=
EXTT9=
EXTT10=
EXTT11=
EXTT12=
EXTT13=
EXTT14=
EXTT15=
PLAYORDER=
